<?xml version="1.0" encoding="UTF-8"?>
<svg id="Layer_1" xmlns="http://www.w3.org/2000/svg" xmlns:xlink="http://www.w3.org/1999/xlink" version="1.1" viewBox="0 0 4398.8 1353">
  <!-- Generator: Adobe Illustrator 29.6.0, SVG Export Plug-In . SVG Version: 2.1.1 Build 207)  -->
  <defs>
    <style>
      .st0 {
        fill: url(#linear-gradient);
      }

      .st1 {
        fill: #fff;
      }

      .st2 {
        fill: #008dff;
      }
    </style>
    <linearGradient id="linear-gradient" x1="559.5" y1="337.7" x2="1371.4" y2="337.7" gradientTransform="translate(-516.7 1081.7) scale(1.2 -1.2)" gradientUnits="userSpaceOnUse">
      <stop offset="0" stop-color="#05f2db"/>
      <stop offset=".5" stop-color="#008dff"/>
    </linearGradient>
  </defs>
  <path class="st0" d="M671.9.8C405.3,2.8,175.2,158.8,66.8,384.5h640c-3.6,57.1-7.1,111.5-10.8,163.1h0c-7.9,111.1-16.2,209.5-25.4,294.7,31-126.1,60.3-238.5,87.3-336.5l33.4-121.7h179.8l-202.3,655.4h-258.8l12.7-492H129.5C58.5,547.5.5,604.6.2,675.3c-.4,70.6,0,.7,0,1.2,0,373.8,302.8,676.5,676.5,676.5s677.2-303.5,676.5-677.6C1352.4,301.5,1045.3-2.4,671.9,0v.8Z"/>
  <g>
    <g>
      <path class="st1" d="M1903.5,305.4l-147.9,479.3h-189.3l12.5-479.3h131.4c-8,132-16.8,243.7-26.4,335.1,22.7-92.4,44-174.4,63.9-246l24.4-89.1h131.4Z"/>
      <path class="st1" d="M2085.5,305.4l-84.5,479.3h-124.6l84.5-479.3h124.6Z"/>
      <path class="st1" d="M2423,305.4l-16.9,95.9h-74l-67.6,383.4h-124.6l67.6-383.4h-73.7l16.9-95.9h272.4,0Z"/>
      <path class="st1" d="M2678.9,305.4l-13.2,479.3h-127.4l8.5-86.1h-44.6l-22.7,86.1h-128.9l148.1-479.3h180.2ZM2558.5,613.6c3.3-54.3,8.8-121.4,16.5-201.3-28.9,91.8-48.7,158.9-59.4,201.3h42.9Z"/>
      <path class="st1" d="M2932.4,305.4l-67.6,383.4h75.8l-16.9,95.9h-200.4l84.5-479.3h124.6,0Z"/>
      <path class="st1" d="M3319.8,514.1h-124.6l14.7-83.3c4.3-24.2,5.6-39.3,4-45.3s-7-9-16-9-17.4,3.7-21.5,11-8.2,23.1-12.5,47.4l-39.3,222.6c-4.1,23.3-5.4,38.5-3.9,45.6s7.1,10.7,16.8,10.7,16-3.6,20.1-10.7c4.1-7.1,8.5-23.8,13.1-50.2l10.6-60.2h124.6l-3.3,18.7c-8.7,49.6-18.5,84.8-29.1,105.5-10.7,20.8-29.4,38.9-56.1,54.6-26.7,15.6-57.7,23.4-92.8,23.4s-65.4-6.6-86.8-19.8c-21.4-13.2-33.8-31.5-37.4-54.9-3.6-23.4-1.2-58.6,7.1-105.5l24.7-140c6.1-34.5,11.8-60.4,17.2-77.7,5.4-17.3,15.4-33.9,30-49.9s33.1-28.6,55.5-37.7c22.4-9.2,47.2-13.8,74.2-13.8s65.8,7.1,87.1,21.3c21.4,14.2,33.9,31.9,37.7,53.1s1.7,54.2-6.2,98.9l-8,45.5v-.3Z"/>
      <path class="st1" d="M3673,586c-8.5,48.2-15.6,82.3-21.4,102.3-5.8,20-16.1,38.3-31,54.9-14.9,16.6-33.2,29.3-55.1,38.2-21.9,8.9-46.4,13.3-73.4,13.3s-48-4.2-66.9-12.6c-18.9-8.4-33.2-21-42.6-37.7-9.5-16.8-13.7-35-12.5-54.8,1.1-19.7,6-54.3,14.7-103.6l14.5-82c8.5-48.2,15.6-82.2,21.4-102.3,5.8-20,16.1-38.3,31-54.9s33.2-29.3,55.1-38.2c21.9-8.9,46.4-13.3,73.4-13.3s48,4.2,66.9,12.6,33.2,21,42.6,37.7c9.5,16.8,13.7,35,12.5,54.8-1.1,19.7-6,54.3-14.7,103.6l-14.5,82h0ZM3576.1,428.5c3.9-22.3,5.2-36.6,3.8-42.8-1.4-6.2-5.9-9.3-13.6-9.3s-11.9,2.5-16.3,7.6c-4.3,5-8.7,19.9-13,44.6l-39.5,223.8c-4.9,27.8-6.8,45-5.7,51.5s5.8,9.8,14.1,9.8,14.6-3.7,18.3-11.3c3.7-7.5,8-25.4,13-53.6l38.8-220.3h0Z"/>
      <path class="st1" d="M3805.3,305.4h88.2c58.8,0,98.2,2.3,118.3,6.8,20,4.5,34.9,16.1,44.8,34.8,9.8,18.6,11.2,48.4,4,89.3-6.6,37.3-15.6,62.4-27.2,75.2-11.5,12.8-31.2,20.5-58.8,23.1,23.6,6.1,38.7,14.3,45.4,24.6s10.3,19.7,10.9,28.3c.6,8.6-2.6,32.2-9.4,70.9l-22.3,126.4h-115.8l28.1-159.3c4.5-25.7,5.3-41.5,2.3-47.7-3-6.1-13-9.2-30.2-9.2l-38.1,216.1h-124.6l84.5-479.3h0ZM3915.5,387.4l-18.8,106.6c14,0,24.2-1.9,30.5-5.8,6.3-3.8,11.3-16.3,15-37.4l4.6-26.3c2.7-15.2,1.7-25.2-2.9-29.9-4.6-4.7-14.1-7.1-28.5-7.1h0Z"/>
      <path class="st1" d="M4168.3,305.4h207.8l-16.9,95.9h-83.2l-16,90.9h77.9l-16.1,91.2h-77.9l-18.6,105.4h91.5l-16.9,95.9h-216.1l84.5-479.3h0Z"/>
    </g>
    <g>
      <path class="st2" d="M1585.4,1056.1l-3.6-28.3h-43.3l-13.6,28.3h-27.1l63-119.3h30.8l21.1,119.3h-27.3ZM1579.5,1006.7c-3.4-25.6-5.4-40.1-5.8-43.5s-.7-6-.7-8c-3,6.9-11.2,24.1-24.4,51.4h31,0Z"/>
      <path class="st2" d="M1627.5,1056.1l20.9-118.8h25.2l-21,118.8h-25.2,0Z"/>
      <path class="st2" d="M1678.7,1021.6l3.6-20.3h43.6l-3.6,20.3h-43.6Z"/>
      <path class="st2" d="M1845.4,995.5c-3.4,19.6-11.7,34.5-24.6,44.9-13,10.4-30,15.6-51,15.6h-33.6l21-118.8h37.3c19.4,0,33.6,5.1,42.5,15.4,8.9,10.2,11.8,24.5,8.5,42.9h-.1ZM1819.2,996.2c4.5-25.5-4.5-38.3-27.1-38.3h-13.4l-13.6,77.4h10.8c24.3,0,38.7-13,43.3-39.1h0Z"/>
      <path class="st2" d="M1859.4,1056.1l20.9-118.8h25.2l-21,118.8h-25.2,0Z"/>
      <path class="st2" d="M2003.2,937.3h25.4l-61.3,118.8h-27.5l-19.4-118.8h25.4l9.9,70.7c.5,4.2.9,9,1.3,14.6s.5,9.4.4,11.6c1.5-5,5-13.7,10.7-26.2l35-70.7h0Z"/>
      <path class="st2" d="M2091.1,1056.1h-68.4l21-118.8h68.4l-3.6,20.6h-43.2l-4.6,26.1h40.2l-3.6,20.6h-40.2l-5.4,30.6h43.2l-3.7,20.8h0Z"/>
      <path class="st2" d="M2221.3,1056.1h-32l-35.8-89.9h-.7c-1.8,15.9-3.3,27.2-4.4,34l-9.9,55.9h-22.5l21-118.8h31.8l35.9,89h.6c1.9-15.4,3.4-26.4,4.6-32.7l9.9-56.2h22.7l-20.9,118.8h-.3Z"/>
      <path class="st2" d="M2391.8,1010.5l-8,45.6h-25.2l21-118.8h34.6c16.1,0,27.6,2.9,34.3,8.8,6.7,5.9,9,14.8,6.9,26.8-1.2,7-4.3,13.2-9.1,18.6-4.8,5.4-11,9.7-18.6,12.8,13.2,26.7,21.8,44,25.8,51.8h-28l-20.3-45.6h-13.4ZM2395.4,990h8.1c8,0,14.1-1.3,18.3-4,4.3-2.7,6.9-6.8,7.9-12.5,1-5.6-.2-9.6-3.7-12s-9.2-3.6-17.4-3.6h-7.6l-5.7,32.1h0Z"/>
      <path class="st2" d="M2541.2,1056.1l-3.6-28.3h-43.3l-13.6,28.3h-27.1l63-119.3h30.8l21.1,119.3h-27.3ZM2535.2,1006.7c-3.4-25.6-5.4-40.1-5.8-43.5-.4-3.4-.7-6-.7-8-3,6.9-11.2,24.1-24.4,51.4h31-.1Z"/>
      <path class="st2" d="M2651.3,956.5c-9.5,0-17.5,3.6-23.9,10.7-6.5,7.1-10.8,17.1-13.1,29.8-4.7,26.5,2.9,39.7,22.8,39.7s18.8-2.1,31.4-6.3l-3.7,21.1c-10.5,4.1-21.7,6.1-33.7,6.1-17.3,0-29.6-5.2-36.9-15.7-7.3-10.5-9.2-25.5-5.8-45.1,2.2-12.4,6.3-23.2,12.5-32.5,6.1-9.3,13.8-16.4,23.1-21.4s19.6-7.4,30.9-7.4,22.6,2.8,33.3,8.4l-11.7,20.5c-4.1-2.1-8.2-4-12.4-5.5-4.2-1.6-8.5-2.4-12.8-2.4h0Z"/>
      <path class="st2" d="M2757.7,1056.1h-68.4l21-118.8h68.4l-3.6,20.6h-43.2l-4.6,26.1h40.2l-3.6,20.6h-40.2l-5.4,30.6h43.2l-3.7,20.8h0Z"/>
      <path class="st2" d="M2935.7,1056.1h-25.2l17.3-97.8h-32.3l3.7-21h89.7l-3.7,21h-32.3l-17.3,97.8h.1Z"/>
      <path class="st2" d="M3019.5,1010.5l-8,45.6h-25.2l20.9-118.8h34.6c16.1,0,27.6,2.9,34.3,8.8,6.7,5.9,9,14.8,6.9,26.8-1.2,7-4.3,13.2-9.1,18.6s-11,9.7-18.6,12.8c13.2,26.7,21.8,44,25.8,51.8h-28l-20.3-45.6h-13.4.1ZM3023.1,990h8.1c8,0,14.1-1.3,18.3-4,4.3-2.7,6.9-6.8,7.9-12.5,1-5.6-.2-9.6-3.7-12s-9.2-3.6-17.4-3.6h-7.6l-5.7,32.1h0Z"/>
      <path class="st2" d="M3168.9,1056.1l-3.6-28.3h-43.3l-13.6,28.3h-27.1l63-119.3h30.8l21.1,119.3h-27.3ZM3163,1006.7c-3.4-25.6-5.4-40.1-5.8-43.5-.4-3.4-.7-6-.7-8-3,6.9-11.2,24.1-24.4,51.4h31-.1Z"/>
      <path class="st2" d="M3279,956.5c-9.5,0-17.5,3.6-23.9,10.7-6.5,7.1-10.8,17.1-13.1,29.8-4.7,26.5,2.9,39.7,22.8,39.7s18.8-2.1,31.4-6.3l-3.7,21.1c-10.5,4.1-21.7,6.1-33.7,6.1-17.3,0-29.6-5.2-36.9-15.7-7.3-10.5-9.2-25.5-5.8-45.1,2.2-12.4,6.3-23.2,12.5-32.5,6.1-9.3,13.8-16.4,23.1-21.4s19.6-7.4,30.9-7.4,22.6,2.8,33.3,8.4l-11.7,20.5c-4.1-2.1-8.2-4-12.4-5.5-4.2-1.6-8.5-2.4-12.8-2.4h0Z"/>
      <path class="st2" d="M3412.6,1056.1h-28.6l-22.3-50.1-12,7.6-7.5,42.4h-25.2l20.9-118.8h25.2l-9.6,54.4,12.4-14,39.3-40.4h28l-50.7,52.6,30.1,66.2h0Z"/>
      <path class="st2" d="M3607.7,1056.1l-3.6-28.3h-43.3l-13.6,28.3h-27.1l63-119.3h30.8l21.1,119.3h-27.3ZM3601.8,1006.7c-3.4-25.6-5.4-40.1-5.8-43.5-.4-3.4-.7-6-.7-8-3,6.9-11.2,24.1-24.4,51.4h31-.1Z"/>
      <path class="st2" d="M3755.2,1056.1h-32l-35.8-89.9h-.7c-1.8,15.9-3.3,27.2-4.4,34l-9.9,55.9h-22.5l21-118.8h31.8l35.9,89h.6c1.9-15.4,3.4-26.4,4.6-32.7l9.9-56.2h22.7l-20.9,118.8h-.3Z"/>
      <path class="st2" d="M3857.8,1056.1l-3.6-28.3h-43.3l-13.6,28.3h-27.1l63-119.3h30.8l21.1,119.3h-27.3ZM3851.9,1006.7c-3.4-25.6-5.4-40.1-5.8-43.5-.4-3.4-.7-6-.7-8-3,6.9-11.2,24.1-24.4,51.4h31-.1Z"/>
      <path class="st2" d="M3899.9,1056.1l20.9-118.8h25.2l-17.3,98h48.2l-3.7,20.8h-73.4.1Z"/>
      <path class="st2" d="M4043.2,986.2l33.4-48.9h27.1l-52.2,72.6-8.2,46.2h-25l8-45.4-26.5-73.4h27.3l16,48.9h.1Z"/>
      <path class="st2" d="M4173.7,1023.1c-1.9,10.7-7.2,19.2-16.1,25.4-8.8,6.2-20.1,9.3-33.9,9.3s-23.5-2.4-32.4-7.2l4.1-23.4c7.4,3.6,13.7,6.1,19,7.6s10.2,2.2,14.8,2.2,10-1.1,13.3-3.2,5.4-5.3,6.1-9.4c.4-2.3.1-4.4-.9-6.2s-2.6-3.6-4.8-5.2c-2.2-1.7-6.9-4.4-14-8-6.7-3.4-11.5-6.7-14.6-9.8s-5.3-6.8-6.8-11c-1.4-4.2-1.7-9-.7-14.6,1.9-10.5,6.9-18.8,15.1-24.8s18.6-9,31.1-9,11.9.7,17.3,2.2c5.3,1.5,10.9,3.5,16.5,6.2l-11.6,19.6c-5.9-2.6-10.8-4.4-14.8-5.4s-8-1.5-12-1.5-8.6,1.1-11.6,3.3c-2.9,2.2-4.7,5.1-5.3,8.7-.4,2.2-.2,4.2.5,5.8.7,1.7,2.1,3.3,4.1,4.8s6.8,4.3,14.5,8.3c10.2,5.3,16.8,10.6,20,16,3.2,5.3,4.1,11.9,2.7,19.6l.4-.3Z"/>
      <path class="st2" d="M4189.4,1056.1l20.9-118.8h25.2l-21,118.8h-25.2.1Z"/>
      <path class="st2" d="M4320.5,1023.1c-1.9,10.7-7.2,19.2-16.1,25.4-8.8,6.2-20.1,9.3-33.9,9.3s-23.5-2.4-32.4-7.2l4.1-23.4c7.4,3.6,13.7,6.1,19,7.6s10.2,2.2,14.8,2.2,10-1.1,13.3-3.2,5.4-5.3,6.1-9.4c.4-2.3.1-4.4-.9-6.2s-2.6-3.6-4.8-5.2c-2.2-1.7-6.9-4.4-14-8-6.7-3.4-11.5-6.7-14.6-9.8s-5.3-6.8-6.8-11c-1.4-4.2-1.7-9-.7-14.6,1.9-10.5,6.9-18.8,15.1-24.8s18.6-9,31.1-9,11.9.7,17.3,2.2c5.3,1.5,10.9,3.5,16.5,6.2l-11.6,19.6c-5.9-2.6-10.8-4.4-14.8-5.4s-8-1.5-12-1.5-8.6,1.1-11.6,3.3c-2.9,2.2-4.7,5.1-5.3,8.7-.4,2.2-.2,4.2.5,5.8.7,1.7,2.1,3.3,4.1,4.8s6.8,4.3,14.5,8.3c10.2,5.3,16.8,10.6,20,16,3.2,5.3,4.1,11.9,2.7,19.6l.4-.3Z"/>
    </g>
  </g>
</svg>